<svg width="25" height="25" viewBox="0 0 25 25" fill="none" xmlns="http://www.w3.org/2000/svg">
<path d="M8.93506 6.74438C8.23506 6.74438 7.68506 7.29742 7.68506 7.97334C7.68506 8.64927 8.24756 9.2023 8.93506 9.2023C9.62255 9.2023 10.185 8.64927 10.185 7.97334C10.185 7.29742 9.62255 6.74438 8.93506 6.74438Z" fill="#004042"/>
<path d="M24.3232 3.73576C23.2732 1.33947 20.9609 0 17.7362 0H7.26195C3.24975 0 0 3.19506 0 7.13972V17.4376C0 20.6081 1.3624 22.8815 3.79971 23.9138C4.03719 24.0121 4.31217 23.9506 4.48716 23.7786L24.1857 4.41164C24.3732 4.22731 24.4356 3.95695 24.3232 3.73576ZM10.6617 12.5836C10.1742 13.0506 9.53678 13.2718 8.89933 13.2718C8.26187 13.2718 7.62442 13.0383 7.13696 12.5836C5.86206 11.4039 4.46216 9.52373 4.99962 7.28719C5.47459 5.25955 7.29945 4.35019 8.89933 4.35019C10.4992 4.35019 12.3241 5.25956 12.799 7.29948C13.324 9.52373 11.9241 11.4039 10.6617 12.5836Z" fill="#004042"/>
<path d="M21.8345 22.7702C22.1095 23.0406 22.072 23.483 21.7345 23.6673C20.6346 24.2695 19.2972 24.5767 17.7348 24.5767H7.26063C6.89816 24.5767 6.74817 24.1589 6.99815 23.9131L14.5476 16.4907C14.7975 16.245 15.185 16.245 15.435 16.4907L21.8345 22.7702Z" fill="#004042"/>
<path d="M25.0005 7.13841V17.4363C25.0005 18.9724 24.6881 20.2996 24.0756 21.3687C23.8881 21.7005 23.4382 21.725 23.1632 21.467L16.7637 15.1752C16.5137 14.9294 16.5137 14.5485 16.7637 14.3027L24.3131 6.88035C24.5756 6.63457 25.0005 6.78204 25.0005 7.13841Z" fill="#004042"/>
</svg>
