<svg width="28" height="24" viewBox="0 0 28 24" fill="none" xmlns="http://www.w3.org/2000/svg">
<path d="M11.7789 0.00135278C11.7001 0.00688571 11.6214 0.0162574 11.5423 0.0162574H5.38469C4.20755 0.0162574 3.23085 1.00497 3.23085 2.1966V8.62373C3.23085 9.22526 2.95023 9.78541 2.52757 10.2134C0.968416 11.7924 9.14889e-05 13.9688 9.14889e-05 16.3688C-0.00186434 16.5207 0.027558 16.6713 0.0864719 16.8111C0.145386 16.9508 0.232491 17.0765 0.342202 17.1801C0.451914 17.2838 0.58181 17.3631 0.723562 17.4129C0.961359 17.4965 1.1919 17.6649 1.24243 17.9119C1.95146 21.3775 4.9878 24 8.61545 24C12.3147 24 15.3991 21.2729 16.0277 17.7057C16.051 17.5735 16.1709 17.4814 16.3037 17.4622C16.3174 17.4602 16.3312 17.459 16.345 17.459H17.6995C18.7159 17.459 19.3846 18.6229 19.3846 19.6393C19.3846 22.0347 21.326 24 23.6923 24C26.0586 24 28 22.0347 28 19.6393C28 18.701 27.6983 17.8327 27.1911 17.1214C26.7077 16.4436 26.3795 15.6071 26.6099 14.8071L27.9537 10.1429L27.96 10.1195C27.963 10.1089 27.9658 10.0982 27.9685 10.0876C27.9892 10.0026 27.9998 9.91535 28 9.82779C28 9.53866 27.8865 9.26137 27.6846 9.05692C27.4826 8.85247 27.2087 8.73762 26.9231 8.73762H23.5385C22.4339 8.73762 21.5385 7.84219 21.5385 6.73762V3.82523C21.5385 3.52784 21.7796 3.28677 22.0769 3.28677C22.3743 3.28677 22.6154 3.04569 22.6154 2.74831V2.1966C22.6154 1.59451 22.1273 1.10643 21.5252 1.10643H20.4616C20.176 1.10646 19.9021 1.22132 19.7001 1.42576C19.4981 1.6302 19.3847 1.90748 19.3846 2.1966V6.73762C19.3846 7.84219 18.4892 8.73762 17.3846 8.73762H16.4076C15.4877 8.73762 14.6864 8.11017 14.4659 7.21713L13.4116 2.94806C13.3172 2.56592 13.6064 2.1966 14 2.1966C14.1427 2.19864 14.2844 2.17195 14.4169 2.11808C14.5493 2.06421 14.6698 1.98424 14.7714 1.8828C14.8731 1.78137 14.9538 1.6605 15.0089 1.52722C15.0639 1.39394 15.0923 1.2509 15.0923 1.10643C15.0923 0.961953 15.0639 0.818918 15.0089 0.685637C14.9538 0.552356 14.8731 0.431486 14.7714 0.330052C14.6698 0.228618 14.5493 0.148642 14.4169 0.0947726C14.2844 0.0409032 14.1427 0.0142144 14 0.0162574H12.1479C12.0605 0.0162574 11.9734 0.00590346 11.8862 0.00135278C11.8504 -0.000450927 11.8146 -0.000450927 11.7789 0.00135278ZM5.38469 4.1966C5.38469 3.09203 6.28012 2.1966 7.38469 2.1966H9.43858C10.3585 2.1966 11.1598 2.82412 11.3803 3.71723L11.6033 4.62069C11.9873 6.17597 10.2174 7.64745 8.61545 7.64745C8.5056 7.64745 8.39624 7.64959 8.28739 7.65383C6.86472 7.70921 5.38469 6.7271 5.38469 5.30334V4.1966ZM8.61545 10.918C11.602 10.918 14 13.3455 14 16.3688C14 19.3921 11.602 21.8197 8.61545 21.8197C5.62886 21.8197 3.23085 19.3921 3.23085 16.3688C3.23085 13.3455 5.62886 10.918 8.61545 10.918ZM8.61545 14.1885C8.04421 14.1885 7.49638 14.4182 7.09245 14.8271C6.68853 15.236 6.46161 15.7905 6.46161 16.3688C6.46161 16.9471 6.68853 17.5016 7.09245 17.9105C7.49638 18.3194 8.04421 18.5491 8.61545 18.5491C9.18668 18.5491 9.73452 18.3194 10.1384 17.9105C10.5424 17.5016 10.7693 16.9471 10.7693 16.3688C10.7693 15.7905 10.5424 15.236 10.1384 14.8271C9.73452 14.4182 9.18668 14.1885 8.61545 14.1885ZM23.6923 17.459C24.8946 17.459 25.8462 18.4222 25.8462 19.6393C25.8462 20.8564 24.8946 21.8197 23.6923 21.8197C22.49 21.8197 21.5385 20.8564 21.5385 19.6393C21.5385 18.4222 22.49 17.459 23.6923 17.459Z" fill="#004042"/>
</svg>
