<svg width="18" height="23" viewBox="0 0 18 23" fill="none" xmlns="http://www.w3.org/2000/svg">
<path d="M18 7.71558C18 7.19276 17.7953 6.69072 17.4297 6.31699L11.8383 0.601412C11.4621 0.216793 10.9467 0 10.4087 0H2.25C1.008 0 0 1.0304 0 2.3V20.7C0 21.9696 1.008 23 2.25 23H15.75C16.992 23 18 21.9696 18 20.7V7.71558ZM5.625 18.425C5.625 19.0463 5.12132 19.55 4.5 19.55C3.87868 19.55 3.375 19.0463 3.375 18.425V10.325C3.375 9.70368 3.87868 9.2 4.5 9.2C5.12132 9.2 5.625 9.70368 5.625 10.325V18.425ZM10.125 18.425C10.125 19.0463 9.62132 19.55 9 19.55C8.37868 19.55 7.875 19.0463 7.875 18.425V13.775C7.875 13.1537 8.37868 12.65 9 12.65C9.62132 12.65 10.125 13.1537 10.125 13.775V18.425ZM14.625 18.425C14.625 19.0463 14.1213 19.55 13.5 19.55C12.8787 19.55 12.375 19.0463 12.375 18.425V17.225C12.375 16.6037 12.8787 16.1 13.5 16.1C14.1213 16.1 14.625 16.6037 14.625 17.225V18.425ZM11.25 8.05C10.6287 8.05 10.125 7.54632 10.125 6.925V6.38441C10.125 4.89169 11.9374 4.15263 12.9812 5.21968C14.0127 6.27411 13.2657 8.05 11.7906 8.05H11.25Z" fill="#004042"/>
</svg>
