<svg width="24" height="23" viewBox="0 0 24 23" fill="none" xmlns="http://www.w3.org/2000/svg">
<path d="M11.6667 10.3233C13.2138 10.3233 14.6975 10.9275 15.7915 12.0031C16.8854 13.0786 17.5 14.5374 17.5 16.0584V20.9406C17.5 22.0452 16.6046 22.9406 15.5 22.9406H7.83333C6.72877 22.9406 5.83333 22.0452 5.83333 20.9406V16.0584C5.83333 14.5374 6.44791 13.0786 7.54188 12.0031C8.63584 10.9275 10.1196 10.3233 11.6667 10.3233ZM3.63883 13.7873C3.73355 13.7796 3.80641 13.8697 3.78126 13.9613C3.62866 14.5174 3.53744 15.0882 3.50933 15.6638L3.5 16.0584V21.1906C3.5 22.1571 2.7165 22.9406 1.75 22.9406C0.783502 22.9406 1.06536e-07 22.1571 1.06536e-07 21.1906V17.779C-0.000229608 16.7897 0.371033 15.8353 1.04257 15.0986C1.71411 14.3619 2.63865 13.895 3.63883 13.7873ZM19.8333 16.0584C19.8333 14.9332 20.7414 13.8794 21.6558 14.5352C21.8588 14.6807 22.0489 14.8453 22.2234 15.0275C22.9362 15.7723 23.3332 16.7563 23.3333 17.779V21.1906C23.3333 22.1571 22.5498 22.9406 21.5833 22.9406C20.6168 22.9406 19.8333 22.1571 19.8333 21.1906V16.0584ZM4.08333 6.88218C4.85688 6.88218 5.59875 7.1843 6.14573 7.72207C6.69271 8.25985 7 8.98923 7 9.74976C7 10.5103 6.69271 11.2397 6.14573 11.7774C5.59875 12.3152 4.85688 12.6173 4.08333 12.6173C3.30978 12.6173 2.56792 12.3152 2.02094 11.7774C1.47396 11.2397 1.16667 10.5103 1.16667 9.74976C1.16667 8.98923 1.47396 8.25985 2.02094 7.72207C2.56792 7.1843 3.30978 6.88218 4.08333 6.88218ZM19.25 6.88218C20.0235 6.88218 20.7654 7.1843 21.3124 7.72207C21.8594 8.25985 22.1667 8.98923 22.1667 9.74976C22.1667 10.5103 21.8594 11.2397 21.3124 11.7774C20.7654 12.3152 20.0235 12.6173 19.25 12.6173C18.4765 12.6173 17.7346 12.3152 17.1876 11.7774C16.6406 11.2397 16.3333 10.5103 16.3333 9.74976C16.3333 8.98923 16.6406 8.25985 17.1876 7.72207C17.7346 7.1843 18.4765 6.88218 19.25 6.88218ZM11.6667 0C12.9043 0 14.0913 0.48339 14.9665 1.34383C15.8417 2.20427 16.3333 3.37128 16.3333 4.58812C16.3333 5.80497 15.8417 6.97197 14.9665 7.83241C14.0913 8.69285 12.9043 9.17624 11.6667 9.17624C10.429 9.17624 9.242 8.69285 8.36683 7.83241C7.49166 6.97197 7 5.80497 7 4.58812C7 3.37128 7.49166 2.20427 8.36683 1.34383C9.242 0.48339 10.429 0 11.6667 0Z" fill="#004042"/>
</svg>
